<?xml version="1.0" encoding="utf-8"?>
<!-- Generator: Adobe Illustrator 19.0.0, SVG Export Plug-In . SVG Version: 6.00 Build 0)  -->
<svg version="1.1" id="Layer_1" xmlns="http://www.w3.org/2000/svg" xmlns:xlink="http://www.w3.org/1999/xlink" x="0px" y="0px"
	 viewBox="0 0 207 288" style="enable-background:new 0 0 207 288;" xml:space="preserve">
<style type="text/css">
	.st0{fill:#2A61A3;}
	.st1{fill:#FDD357;}
	.st2{fill:#F37128;}
</style>
<g>
	<g>
		<path class="st0" d="M56.431,135.259l51.135,13.7c2.856,0.765,4.406,4.256,3.459,7.793L78.504,278.114
			c-0.947,3.535-4.033,5.783-6.889,5.019c-1.319-0.354-2.356-1.286-3.001-2.533l-16.793-25.868l-27.976,14.262
			c-2.852,1.456-5.907-0.037-6.82-3.329c-0.361-1.314-0.332-2.715,0.018-4.02l-0.023-0.007l32.52-121.36
			C50.485,136.738,53.573,134.492,56.431,135.259z"/>
	</g>
	<g>
		<path class="st0" d="M153.092,135.259l-51.133,13.7c-2.858,0.767-4.408,4.256-3.461,7.791l32.521,121.364
			c0.946,3.535,4.033,5.783,6.888,5.019c1.318-0.354,2.357-1.286,3.002-2.533l16.792-25.868l27.976,14.26
			c2.854,1.456,5.908-0.035,6.82-3.329c0.362-1.314,0.333-2.713-0.018-4.015l0.021-0.009l-32.518-121.361
			C159.035,136.738,155.949,134.492,153.092,135.259z"/>
	</g>
</g>
<g>
	<path class="st1" d="M110.008,10.274l12.922,9.809l16.041-3.764c3.872-0.899,7.745,1.018,9.46,4.415l7.777,14.143l16.142,3.08
		c3.813,0.731,6.532,3.918,6.834,7.608h0.013l1.373,16.354l13.485,9.374c3.359,2.333,4.501,6.666,2.946,10.28l-5.217,14.973
		l8.511,14.051c2.001,3.31,1.458,7.452-1.07,10.137l0.013,0.012l-11.255,11.988l2.059,16.289c0.49,3.904-1.768,7.524-5.27,8.899
		l-14.945,6.285l-4.758,15.764c-1.191,3.947-5.018,6.382-8.977,5.969l-15.727-0.329l-10.751,12.456
		c-2.62,3.021-6.917,3.734-10.31,1.946l-14.535-6.843l-14.893,7.009c-3.497,1.634-7.542,0.663-9.948-2.12l-0.003,0.008
		L69.174,185.61l-16.438,0.344c-3.866,0.073-7.172-2.466-8.239-5.993l-0.023,0.01l-4.762-15.764l-15.119-6.358
		c-3.575-1.503-5.568-5.187-5.089-8.854l2.054-16.261l-11.254-11.988c-2.793-2.969-3.022-7.431-0.762-10.64l8.214-13.56
		l-5.41-15.534c-1.272-3.657,0.116-7.6,3.149-9.705l-0.01-0.014l13.483-9.374l1.38-16.354c0.329-4.033,3.437-7.169,7.284-7.688
		l15.699-3l7.913-14.389c1.861-3.396,5.724-5.005,9.324-4.165v-0.004l16.043,3.764l13.066-9.921
		C102.81,7.791,107.065,7.938,110.008,10.274z"/>
</g>
<g>
	<path class="st2" d="M104.762,179.936c-41.477,0-75.22-33.743-75.22-75.22c0-41.476,33.743-75.219,75.22-75.219
		c41.476,0,75.219,33.743,75.219,75.219C179.98,146.192,146.237,179.936,104.762,179.936z M104.762,36.467
		c-37.634,0-68.249,30.619-68.249,68.248c0,37.63,30.615,68.249,68.249,68.249c37.633,0,68.248-30.619,68.248-68.249
		C173.01,67.086,142.395,36.467,104.762,36.467z"/>
</g>
<g>
	<path class="st2" d="M89.918,141.863c-2.773,0-5.432-1.102-7.393-3.063L58.836,115.11c-4.084-4.084-4.084-10.701,0-14.785
		c4.085-4.084,10.701-4.084,14.786,0l16.296,16.297l45.982-45.99c4.078-4.084,10.701-4.084,14.785,0
		c4.084,4.084,4.084,10.701,0,14.786L97.311,138.8C95.351,140.76,92.692,141.863,89.918,141.863z"/>
</g>
</svg>
