<?xml version="1.0" encoding="utf-8"?>
<!-- Generator: Adobe Illustrator 19.0.0, SVG Export Plug-In . SVG Version: 6.00 Build 0)  -->
<svg version="1.1" id="Layer_1" xmlns="http://www.w3.org/2000/svg" xmlns:xlink="http://www.w3.org/1999/xlink" x="0px" y="0px"
	 viewBox="0 0 800 200" style="enable-background:new 0 0 800 200;" xml:space="preserve">
<style type="text/css">
	.st0{fill:#E9314A;}
	.st1{fill:#FFC930;}
	.st2{fill:#FFFFFF;}
</style>
<g id="XMLID_117_">
	<g id="XMLID_23_">
		<polygon id="XMLID_25_" class="st0" points="90.265,20.672 90.215,20.72 90.212,20.723 		"/>
	</g>
</g>
<g id="XMLID_1_">
	<g id="XMLID_105_">
		<path id="XMLID_113_" class="st1" d="M681.499,143.695c1.341,1.642,2.011,3.785,2.011,6.427c0,4.19-1.218,7.183-3.653,8.976
			c-2.435,1.794-5.408,2.69-8.919,2.69h-14.553c-0.756,0-1.398-0.264-1.926-0.793c-0.529-0.529-0.793-1.17-0.793-1.926v-34.204
			c0-0.754,0.264-1.396,0.793-1.925c0.528-0.529,1.169-0.793,1.926-0.793h14.553c3.435,0,6.05,0.849,7.843,2.548
			c1.792,1.699,2.69,4.153,2.69,7.362c0,1.812-0.434,3.426-1.303,4.842c-0.868,1.415-2.133,2.502-3.794,3.256
			C678.45,140.873,680.159,142.052,681.499,143.695z M674.194,128.858c-0.962-0.924-2.312-1.387-4.049-1.387h-10.702v11.042h10.815
			c1.548-0.037,2.832-0.538,3.851-1.501s1.53-2.331,1.53-4.106C675.639,131.133,675.157,129.784,674.194,128.858z M675.865,154.964
			c1.246-1.076,1.869-2.69,1.869-4.842c0-4.19-2.378-6.286-7.135-6.286h-11.156v12.742h11.438
			C672.957,156.578,674.619,156.04,675.865,154.964z"/>
		<path id="XMLID_111_" class="st1" d="M715.024,157.37c0.509,0.529,0.764,1.152,0.764,1.869c0,0.756-0.255,1.369-0.764,1.84
			c-0.509,0.472-1.16,0.708-1.953,0.708h-19.707c-0.756,0-1.398-0.264-1.926-0.793c-0.529-0.529-0.793-1.17-0.793-1.926v-34.204
			c0-0.754,0.264-1.396,0.793-1.925c0.528-0.529,1.169-0.793,1.926-0.793h19.707c0.793,0,1.444,0.246,1.953,0.736
			c0.509,0.491,0.764,1.132,0.764,1.926c0,0.756-0.255,1.369-0.764,1.84c-0.509,0.472-1.16,0.707-1.953,0.707h-16.819v11.553h14.271
			c0.793,0,1.444,0.245,1.953,0.736c0.509,0.491,0.765,1.114,0.765,1.869c0,0.793-0.256,1.415-0.765,1.869
			c-0.509,0.453-1.16,0.68-1.953,0.68h-14.271v12.515h16.819C713.864,156.578,714.514,156.842,715.024,157.37z"/>
		<path id="XMLID_109_" class="st1" d="M750.586,122.856c0.509,0.472,0.764,1.104,0.764,1.897c0,0.793-0.255,1.415-0.764,1.869
			c-0.509,0.453-1.161,0.679-1.955,0.679h-10.079v31.769c0,0.756-0.275,1.397-0.821,1.926c-0.548,0.529-1.238,0.793-2.067,0.793
			c-0.831,0-1.52-0.264-2.068-0.793c-0.548-0.529-0.821-1.17-0.821-1.926v-31.769h-10.022c-0.793,0-1.445-0.235-1.955-0.707
			c-0.509-0.472-0.764-1.105-0.764-1.897c0-0.755,0.255-1.368,0.764-1.84c0.509-0.472,1.161-0.708,1.955-0.708h25.878
			C749.425,122.148,750.077,122.384,750.586,122.856z"/>
		<path id="XMLID_106_" class="st1" d="M785.667,159.352c0,0.756-0.255,1.378-0.764,1.869c-0.509,0.491-1.105,0.736-1.783,0.736
			c-0.529,0-1.011-0.161-1.445-0.481s-0.784-0.764-1.047-1.331l-3.512-8.324h-17.497l-3.455,8.381
			c-0.189,0.566-0.5,1.001-0.933,1.303c-0.435,0.302-0.916,0.453-1.445,0.453c-0.792,0-1.396-0.207-1.812-0.623
			c-0.416-0.414-0.623-0.981-0.623-1.699c0-0.15,0.037-0.453,0.113-0.906l14.441-34.996c0.263-0.603,0.631-1.066,1.103-1.387
			c0.472-0.321,1.01-0.443,1.614-0.368c0.566,0,1.076,0.151,1.53,0.453c0.453,0.303,0.773,0.736,0.962,1.303l14.384,34.543
			C785.611,158.616,785.667,158.976,785.667,159.352z M761.77,146.668h13.195l-6.625-15.856L761.77,146.668z"/>
	</g>
	<g id="XMLID_70_">
		<g id="XMLID_172_">
			<path id="XMLID_186_" class="st2" d="M279.256,118.999c-1.564,1.397-3.405,2.092-5.523,2.092H214.81
				c0.78,8.148,3.876,14.676,9.291,19.585c5.411,4.912,12.023,7.366,19.835,7.366c5.357,0,9.71-0.779,13.058-2.344
				c3.347-1.561,6.303-3.57,8.871-6.026c1.673-1.004,3.29-1.507,4.854-1.507c1.897,0,3.487,0.67,4.771,2.009
				c1.281,1.34,1.924,2.903,1.924,4.687c0,2.344-1.117,4.465-3.347,6.361c-3.239,3.237-7.533,5.971-12.89,8.202
				c-5.356,2.231-10.825,3.348-16.403,3.348c-9.039,0-16.991-1.896-23.853-5.691c-6.863-3.792-12.166-9.094-15.903-15.903
				c-3.739-6.805-5.606-14.506-5.606-23.1c0-9.374,1.924-17.602,5.774-24.69c3.851-7.085,8.927-12.525,15.233-16.321
				c6.303-3.792,13.083-5.691,20.339-5.691c7.14,0,13.835,1.841,20.087,5.524c6.248,3.682,11.269,8.762,15.065,15.233
				c3.792,6.473,5.746,13.726,5.858,21.76C281.655,115.903,280.818,117.605,279.256,118.999z M224.52,91.379
				c-4.577,3.515-7.59,8.955-9.039,16.321h49.38v-1.34c-0.56-5.913-3.21-10.768-7.952-14.563
				c-4.745-3.792-10.127-5.691-16.153-5.691C234.505,86.107,229.094,87.864,224.52,91.379z"/>
			<path id="XMLID_183_" class="st2" d="M377.766,74.473c1.506,1.507,2.259,3.489,2.259,5.942v72.648
				c0,2.234-0.754,4.13-2.259,5.691c-1.507,1.564-3.433,2.343-5.775,2.343c-2.344,0-4.243-0.754-5.692-2.26
				c-1.45-1.507-2.175-3.431-2.175-5.775v-4.352c-2.903,3.907-6.864,7.226-11.886,9.96s-10.435,4.101-16.237,4.101
				c-7.59,0-14.479-1.951-20.673-5.859c-6.192-3.905-11.048-9.345-14.562-16.32c-3.516-6.973-5.272-14.814-5.272-23.519
				s1.757-16.543,5.272-23.518c3.515-6.973,8.341-12.413,14.479-16.321c6.136-3.905,12.889-5.858,20.254-5.858
				c5.914,0,11.408,1.229,16.488,3.682c5.077,2.456,9.124,5.582,12.137,9.374v-4.017c0-2.344,0.725-4.295,2.175-5.859
				c1.449-1.561,3.348-2.343,5.692-2.343C374.333,72.213,376.258,72.967,377.766,74.473z M351.819,144.024
				c4.073-2.678,7.253-6.361,9.542-11.048c2.286-4.687,3.431-9.986,3.431-15.903c0-5.801-1.146-11.048-3.431-15.735
				c-2.288-4.686-5.469-8.396-9.542-11.132c-4.074-2.733-8.733-4.101-13.976-4.101c-5.247,0-9.905,1.339-13.978,4.017
				c-4.075,2.678-7.256,6.361-9.542,11.048c-2.288,4.686-3.431,9.989-3.431,15.902c0,5.917,1.143,11.215,3.431,15.903
				c2.286,4.686,5.466,8.369,9.542,11.048c4.073,2.678,8.73,4.017,13.978,4.017C343.086,148.041,347.745,146.703,351.819,144.024z"
				/>
			<path id="XMLID_181_" class="st2" d="M427.397,88.952v49.882c0,5.581,2.51,8.37,7.532,8.37c0.78,0,1.841-0.194,3.181-0.586
				c1.34-0.39,2.398-0.586,3.181-0.586c1.449,0,2.678,0.614,3.682,1.841c1.004,1.229,1.507,2.791,1.507,4.687
				c0,2.343-1.34,4.352-4.017,6.026c-2.679,1.674-5.692,2.511-9.039,2.511c-3.683,0-7.059-0.39-10.128-1.172
				c-3.07-0.779-5.803-2.762-8.202-5.942c-2.401-3.181-3.599-8.006-3.599-14.479V88.952h-9.708c-2.121,0-3.879-0.696-5.272-2.092
				c-1.396-1.394-2.093-3.152-2.093-5.273c0-2.118,0.697-3.85,2.093-5.189c1.394-1.34,3.152-2.009,5.272-2.009h9.708V60.329
				c0-2.231,0.754-4.128,2.261-5.691c1.506-1.561,3.431-2.344,5.774-2.344c2.232,0,4.102,0.783,5.608,2.344
				c1.507,1.564,2.261,3.46,2.261,5.691v14.061h13.893c2.118,0,3.876,0.698,5.272,2.092c1.395,1.396,2.093,3.154,2.093,5.272
				c0,2.122-0.698,3.85-2.093,5.189c-1.396,1.339-3.154,2.009-5.272,2.009H427.397z"/>
			<path id="XMLID_178_" class="st2" d="M467.318,59.743c-1.398-1.172-2.093-3.039-2.093-5.608v-2.678
				c0-2.678,0.754-4.574,2.259-5.691c1.507-1.114,3.822-1.673,6.947-1.673c3.123,0,5.383,0.586,6.78,1.757
				c1.394,1.172,2.092,3.042,2.092,5.608v2.678c0,2.678-0.727,4.577-2.176,5.691c-1.45,1.117-3.739,1.673-6.863,1.673
				C471.027,61.5,468.712,60.914,467.318,59.743z M480.039,158.755c-1.506,1.564-3.431,2.343-5.775,2.343
				c-2.233,0-4.1-0.779-5.608-2.343c-1.506-1.562-2.259-3.458-2.259-5.691V80.582c0-2.23,0.754-4.127,2.259-5.691
				c1.507-1.562,3.375-2.344,5.608-2.344c2.344,0,4.269,0.782,5.775,2.344c1.507,1.564,2.259,3.46,2.259,5.691v72.481
				C482.299,155.297,481.547,157.193,480.039,158.755z"/>
			<path id="XMLID_175_" class="st2" d="M569.843,77.235c6.137,3.908,10.965,9.319,14.479,16.237
				c3.516,6.921,5.274,14.731,5.274,23.435c0,8.704-1.758,16.572-5.274,23.602c-3.515,7.03-8.342,12.499-14.479,16.404
				c-6.138,3.908-12.889,5.859-20.254,5.859c-5.803,0-11.215-1.284-16.237-3.85c-5.022-2.566-9.096-5.746-12.22-9.541v4.855
				c0,2.233-0.752,4.13-2.259,5.691c-1.506,1.562-3.431,2.344-5.775,2.344c-2.233,0-4.1-0.754-5.608-2.26
				c-1.506-1.507-2.259-3.431-2.259-5.775V45.263c0-2.343,0.725-4.268,2.176-5.775c1.449-1.507,3.348-2.26,5.691-2.26
				c2.344,0,4.269,0.782,5.775,2.344c1.507,1.564,2.259,3.46,2.259,5.691v40.844c2.679-4.018,6.584-7.475,11.718-10.379
				c5.131-2.901,10.6-4.352,16.405-4.352C556.842,71.376,563.705,73.33,569.843,77.235z M561.307,143.94
				c4.127-2.733,7.337-6.471,9.625-11.215c2.286-4.742,3.431-10.014,3.431-15.818c0-5.802-1.146-11.048-3.431-15.735
				c-2.288-4.687-5.498-8.37-9.625-11.048c-4.131-2.678-8.762-4.017-13.894-4.017c-5.246,0-9.933,1.339-14.061,4.017
				c-4.13,2.678-7.339,6.334-9.625,10.964c-2.288,4.632-3.431,9.905-3.431,15.819c0,5.916,1.143,11.215,3.431,15.902
				c2.286,4.687,5.496,8.398,9.625,11.132c4.128,2.736,8.815,4.101,14.061,4.101C552.545,148.041,557.176,146.676,561.307,143.94z"
				/>
			<path id="XMLID_173_" class="st2" d="M622.905,158.755c-1.564,1.564-3.459,2.343-5.691,2.343c-2.233,0-4.101-0.779-5.608-2.343
				c-1.506-1.562-2.259-3.458-2.259-5.691v-107.8c0-2.231,0.779-4.127,2.344-5.691c1.561-1.562,3.458-2.344,5.691-2.344
				c2.23,0,4.101,0.782,5.608,2.344c1.506,1.564,2.259,3.46,2.259,5.691v107.8C625.249,155.297,624.468,157.193,622.905,158.755z"/>
		</g>
	</g>
</g>
<g id="XMLID_10_">
	<g id="XMLID_64_">
		<g id="XMLID_22_">
			<path id="XMLID_26_" class="st2" d="M175.406,107.931c0,44.491-36.056,80.555-80.547,80.555
				c-44.487,0-80.551-36.064-80.551-80.555c0-28.736,15.054-53.946,37.704-68.198v17.89c-14.24,12.13-23.29,30.181-23.29,50.308
				c0,35.594,28.274,64.701,63.541,66.047c0.846,0.033,1.697,0.05,2.551,0.05c1.14,0,2.271-0.029,3.398-0.087
				c34.896-1.751,62.744-30.685,62.744-66.01c0-19.661-8.633-37.336-22.308-49.446c-0.012-0.012-0.025-0.021-0.037-0.033
				c1.651-4.992,2.531-10.553,2.531-16.333V42.02c0.016,0.012,0.029,0.021,0.045,0.033
				C161.884,56.628,175.406,80.694,175.406,107.931z"/>
		</g>
	</g>
	<g id="XMLID_54_">
		<path id="XMLID_57_" class="st2" d="M134.536,42.119c0,0.314-0.004,0.628-0.008,0.941c-0.008,0.314-0.017,0.628-0.029,0.937
			c-0.008,0.277-0.021,0.545-0.037,0.818c-0.004,0.095-0.008,0.194-0.017,0.289c-0.012,0.248-0.033,0.496-0.05,0.743v0.004
			c-0.045,0.611-0.103,1.214-0.173,1.813c-0.025,0.235-0.054,0.471-0.083,0.702c-0.004,0.025-0.004,0.045-0.008,0.07
			c-0.029,0.202-0.054,0.405-0.087,0.603c-0.029,0.206-0.058,0.409-0.091,0.611c0,0.008-0.004,0.012-0.004,0.021
			c-0.05,0.334-0.107,0.665-0.169,0.995c-0.037,0.223-0.078,0.446-0.124,0.665c-0.004,0.029-0.012,0.058-0.017,0.087
			c-0.083,0.417-0.173,0.83-0.268,1.239c-0.054,0.235-0.107,0.467-0.165,0.698c-0.058,0.235-0.116,0.462-0.178,0.694
			c-0.058,0.223-0.12,0.446-0.182,0.665c-0.062,0.223-0.124,0.442-0.19,0.661s-0.132,0.434-0.202,0.648
			c-0.037,0.128-0.083,0.256-0.124,0.384c-0.083,0.248-0.165,0.491-0.252,0.735c-0.194,0.557-0.405,1.106-0.623,1.643
			c-0.062,0.161-0.128,0.322-0.198,0.479c-0.087,0.211-0.178,0.421-0.273,0.632c-0.091,0.206-0.186,0.413-0.281,0.615
			c-0.017,0.033-0.033,0.07-0.05,0.103c-0.107,0.231-0.219,0.458-0.334,0.681c-0.116,0.231-0.231,0.454-0.351,0.677
			c-0.145,0.277-0.297,0.549-0.45,0.813c-0.14,0.248-0.285,0.491-0.433,0.731c-0.008,0.021-0.021,0.037-0.033,0.058
			c-0.144,0.239-0.293,0.471-0.446,0.698c-0.115,0.177-0.231,0.351-0.355,0.524c-0.103,0.153-0.207,0.305-0.318,0.454
			c-0.095,0.136-0.194,0.268-0.293,0.4c-0.285,0.38-0.578,0.747-0.88,1.102c-4.901,5.797-5.945,12.906-5.982,20.417
			c-0.008,1.094,0.004,2.196,0.033,3.303v67.104c-3.39,1.775-6.982,3.216-10.731,4.273V90.471c0.041-1.751,0.054-3.489,0-5.198
			c-0.21-6.804-1.457-13.212-5.954-18.521c-0.173-0.202-0.342-0.409-0.508-0.623c-0.165-0.206-0.326-0.421-0.487-0.64
			c-0.004-0.004-0.004-0.004-0.008-0.008c-0.066-0.087-0.128-0.177-0.19-0.264c-0.07-0.091-0.132-0.178-0.19-0.269
			c-0.025-0.033-0.049-0.066-0.07-0.099c-0.128-0.182-0.252-0.363-0.372-0.549c0-0.004-0.004-0.004-0.004-0.008
			c-0.004-0.008-0.012-0.017-0.016-0.025c-0.008-0.008-0.012-0.021-0.017-0.029c-0.066-0.099-0.132-0.202-0.198-0.306
			c-0.07-0.103-0.136-0.206-0.194-0.31c-0.272-0.433-0.537-0.883-0.78-1.342c-0.103-0.174-0.198-0.351-0.289-0.528
			c-0.016-0.037-0.037-0.074-0.058-0.111c-0.021-0.042-0.041-0.087-0.066-0.132c-0.078-0.149-0.153-0.306-0.231-0.458
			c-0.004-0.012-0.012-0.021-0.017-0.033c-0.037-0.07-0.07-0.144-0.107-0.219c-0.103-0.219-0.211-0.442-0.31-0.665
			c-0.087-0.186-0.174-0.376-0.252-0.566c-0.091-0.202-0.178-0.409-0.26-0.615c-0.173-0.413-0.339-0.838-0.496-1.268
			c-0.083-0.215-0.161-0.429-0.235-0.648c-0.095-0.268-0.186-0.537-0.273-0.809c-0.091-0.277-0.177-0.549-0.26-0.83
			c-0.087-0.277-0.165-0.557-0.244-0.838c-0.004-0.008-0.004-0.021-0.008-0.029c-0.087-0.314-0.169-0.632-0.252-0.954
			c-0.083-0.33-0.161-0.66-0.235-0.995c-0.049-0.211-0.095-0.417-0.14-0.628c-0.037-0.178-0.074-0.351-0.107-0.528
			c-0.033-0.161-0.066-0.322-0.095-0.483c-0.004-0.016-0.004-0.033-0.008-0.049c-0.017-0.091-0.033-0.182-0.05-0.277
			c-0.058-0.306-0.107-0.615-0.157-0.929c-0.008-0.037-0.012-0.074-0.021-0.112c-0.045-0.297-0.087-0.599-0.128-0.9
			c-0.008-0.037-0.012-0.078-0.017-0.116c-0.025-0.186-0.05-0.372-0.07-0.557c-0.004-0.021-0.004-0.041-0.008-0.062
			c-0.025-0.202-0.046-0.405-0.066-0.607c-0.004-0.016-0.004-0.037-0.008-0.054c-0.008-0.074-0.017-0.148-0.021-0.223
			c-0.004-0.008-0.004-0.021-0.004-0.029c-0.021-0.157-0.033-0.318-0.045-0.479c-0.021-0.206-0.037-0.413-0.054-0.619
			c-0.012-0.178-0.029-0.351-0.037-0.528c-0.008-0.054-0.008-0.107-0.012-0.161c-0.008-0.161-0.021-0.322-0.029-0.483
			c-0.012-0.252-0.025-0.508-0.033-0.76c-0.013-0.264-0.021-0.528-0.025-0.797c0-0.004,0-0.004,0-0.008
			c-0.008-0.355-0.012-0.714-0.012-1.074c0-16.903,8.538-30.606,19.079-30.606c0.153,0,0.301,0.004,0.45,0.008
			c0.054,0.004,0.111,0.004,0.169,0.008c0.029,0,0.054,0.004,0.083,0.004c0.095,0.004,0.19,0.012,0.285,0.021
			c0.161,0.012,0.318,0.029,0.479,0.05c0.124,0.012,0.248,0.029,0.372,0.05h0.004c0.099,0.016,0.194,0.029,0.293,0.05
			c0.008,0,0.012,0.004,0.021,0.004c0.103,0.016,0.206,0.037,0.305,0.058c0.107,0.021,0.211,0.046,0.314,0.07
			c0.107,0.021,0.215,0.05,0.322,0.079c0.26,0.066,0.52,0.145,0.776,0.227c0.149,0.049,0.297,0.103,0.446,0.157
			c0.182,0.066,0.363,0.136,0.545,0.215c0.124,0.049,0.248,0.103,0.372,0.161c0.132,0.058,0.26,0.12,0.392,0.186
			c0.136,0.066,0.268,0.136,0.405,0.211c0.136,0.07,0.268,0.145,0.404,0.223c0.132,0.074,0.264,0.153,0.392,0.231
			c0.004,0,0.008,0.004,0.012,0.008c0.116,0.07,0.231,0.14,0.347,0.219c0.008,0.004,0.012,0.008,0.021,0.012
			c0.099,0.066,0.198,0.128,0.293,0.198c0.091,0.058,0.178,0.12,0.264,0.182c0.107,0.075,0.215,0.153,0.318,0.235
			c0.103,0.074,0.206,0.153,0.31,0.236c0.186,0.144,0.368,0.293,0.549,0.45c0.008,0.004,0.017,0.012,0.025,0.021
			c0.173,0.145,0.351,0.301,0.52,0.454c0.012,0.017,0.025,0.029,0.041,0.041c0.177,0.165,0.351,0.33,0.524,0.504
			c0.177,0.177,0.355,0.359,0.528,0.545c0.083,0.083,0.161,0.169,0.235,0.256c0.087,0.091,0.169,0.182,0.248,0.277
			c0.124,0.14,0.248,0.285,0.372,0.434c0.107,0.128,0.215,0.26,0.322,0.396c0.136,0.169,0.269,0.339,0.401,0.512
			c0.074,0.099,0.149,0.198,0.223,0.297c0.066,0.091,0.128,0.182,0.194,0.272c0.054,0.074,0.103,0.149,0.157,0.223
			c0.054,0.074,0.103,0.149,0.153,0.223c0.198,0.285,0.388,0.578,0.578,0.879c0.111,0.174,0.219,0.347,0.322,0.525
			c0.062,0.107,0.128,0.215,0.19,0.322c0.012,0.021,0.021,0.037,0.033,0.058c0.252,0.438,0.499,0.888,0.735,1.35
			c0.083,0.153,0.161,0.306,0.236,0.463c0.252,0.504,0.491,1.024,0.722,1.556c0.111,0.252,0.219,0.512,0.322,0.772
			c0.132,0.322,0.26,0.652,0.384,0.987c0.091,0.239,0.177,0.479,0.26,0.722c0.12,0.339,0.235,0.685,0.347,1.032
			c0.07,0.219,0.14,0.442,0.206,0.665c0.103,0.334,0.198,0.669,0.289,1.011c0.095,0.343,0.182,0.686,0.268,1.037
			c0.053,0.206,0.103,0.413,0.149,0.619c0.016,0.066,0.033,0.136,0.049,0.206c0.087,0.392,0.169,0.784,0.248,1.185
			c0.008,0.037,0.017,0.074,0.021,0.111c0.058,0.297,0.116,0.599,0.165,0.904c0.178,1.024,0.322,2.073,0.434,3.138
			c0.025,0.231,0.046,0.463,0.066,0.694c0.033,0.355,0.062,0.714,0.083,1.073c0.025,0.359,0.045,0.723,0.062,1.086
			c0.008,0.149,0.012,0.297,0.017,0.446c0.008,0.149,0.012,0.301,0.012,0.45c0.008,0.153,0.012,0.306,0.012,0.462
			C134.532,41.554,134.536,41.835,134.536,42.119z"/>
		<path id="XMLID_55_" class="st2" d="M101.093,62.28c0.244,0.458,0.508,0.908,0.78,1.342
			C101.605,63.188,101.345,62.742,101.093,62.28z"/>
	</g>
	<path id="XMLID_53_" class="st2" d="M89.702,13.909v43.913c0,4.422-1.874,8.431-4.859,11.263c-4.009,3.79-5.12,8.757-5.339,14.112
		c-0.066,1.656-0.045,3.348,0,5.058v73.574c-3.72-1.061-7.283-2.49-10.648-4.253V88.255c0.008-0.363,0.017-0.722,0.025-1.082
		c0.136-6.841-0.359-13.373-5.363-18.088c-2.981-2.832-4.855-6.841-4.855-11.263V13.909c0-1.346,1.111-2.419,2.461-2.395
		c1.309,0.041,2.308,1.177,2.308,2.485v34.091c0,1.111,0.892,2.002,2.002,2.002c1.094,0,1.986-0.892,1.986-2.002V13.909
		c0-1.346,1.111-2.419,2.461-2.395c1.309,0.041,2.308,1.177,2.308,2.485v34.091c0,1.111,0.896,2.002,2.002,2.002
		c1.09,0,1.986-0.892,1.986-2.002V13.909c0-1.346,1.11-2.419,2.461-2.395c1.305,0.041,2.308,1.177,2.308,2.485v34.091
		c0,1.111,0.896,2.002,2.003,2.002c1.09,0,1.982-0.892,1.982-2.002V14c0-1.309,1.003-2.444,2.308-2.485
		C88.592,11.49,89.702,12.563,89.702,13.909z"/>
	<path id="XMLID_52_" class="st2" d="M150.852,107.931c0,18.232-8.711,34.429-22.2,44.664V76.858
		c0.71-2.291,1.746-4.178,3.154-5.842c0.809-0.954,1.569-1.978,2.279-3.055C144.432,78.13,150.852,92.279,150.852,107.931z"/>
	<path id="XMLID_24_" class="st2" d="M102.283,76.991v86.472c-1.528,0.202-3.072,0.351-4.637,0.438
		c-0.235,0.012-0.471,0.025-0.71,0.033c-0.231,0.008-0.466,0.016-0.702,0.021c-0.198,0.008-0.396,0.012-0.599,0.012
		c-0.272,0.004-0.545,0.008-0.822,0.008c-0.627,0-1.247-0.012-1.87-0.033c-0.636-0.025-1.268-0.058-1.895-0.103
		c-0.314-0.025-0.632-0.05-0.942-0.074c-0.941-0.083-1.874-0.19-2.803-0.314V76.801c0.5-1.156,1.164-2.097,2.031-2.915
		c2.609-2.477,4.558-5.541,5.714-8.881c1.173,2.205,2.523,4.224,4.038,6.016C100.523,72.717,101.568,74.641,102.283,76.991z"/>
	<path id="XMLID_11_" class="st2" d="M61.016,76.892v75.704c-13.489-10.239-22.2-26.432-22.2-44.664
		c0-15.297,6.127-29.153,16.061-39.26c1.073,1.912,2.432,3.67,4.046,5.202l0.008,0.013l0.012,0.008
		C59.852,74.749,60.524,75.744,61.016,76.892z"/>
</g>
</svg>
