<?xml version="1.0" encoding="utf-8"?>
<!-- Generator: Adobe Illustrator 19.0.0, SVG Export Plug-In . SVG Version: 6.00 Build 0)  -->
<svg version="1.1" id="Layer_1" xmlns="http://www.w3.org/2000/svg" xmlns:xlink="http://www.w3.org/1999/xlink" x="0px" y="0px"
	 viewBox="0 0 232.488 261.702" style="enable-background:new 0 0 232.488 261.702;" xml:space="preserve">
<style type="text/css">
	.st0{fill:#FFFFFF;}
</style>
<g id="XMLID_124_">
	<path id="XMLID_125_" class="st0" d="M219.16,137.99c0,57.39-46.51,103.9-103.89,103.9c-57.38,0-103.9-46.51-103.9-103.9
		c0-37.08,19.45-69.62,48.69-87.99v23.11c-18.37,15.64-30.04,38.92-30.04,64.88c0,47.01,38.24,85.25,85.25,85.25
		c47,0,85.25-38.24,85.25-85.25c0-25.35-11.14-48.16-28.77-63.78c2.13-6.45,3.27-13.63,3.27-21.1v-0.09
		C201.72,71.81,219.16,102.86,219.16,137.99z"/>
</g>
<g id="XMLID_118_">
	<g id="XMLID_120_">
		<path id="XMLID_123_" class="st0" d="M124.9,98.09v111.53c-3.15,0.42-6.36,0.66-9.63,0.66c-3.31,0-6.56-0.25-9.75-0.68V97.96
			c0.65-1.54,1.53-2.8,2.68-3.88c3.37-3.19,5.88-7.15,7.37-11.46c1.51,2.85,3.25,5.46,5.21,7.77
			C122.63,92.57,123.98,95.06,124.9,98.09z"/>
		<path id="XMLID_122_" class="st0" d="M71.67,97.99v97.65c-17.42-13.2-28.69-34.1-28.69-57.65c0-19.75,7.92-37.63,20.75-50.67
			c1.39,2.48,3.15,4.76,5.24,6.75C70.16,95.19,71.04,96.49,71.67,97.99z"/>
		<path id="XMLID_121_" class="st0" d="M187.55,137.99c0,23.55-11.27,44.46-28.69,57.66V98.11c0.91-3.05,2.26-5.53,4.12-7.73
			c1.04-1.23,2.02-2.55,2.94-3.94C179.27,99.55,187.55,117.8,187.55,137.99z"/>
	</g>
	<polygon id="XMLID_119_" class="st0" points="109.342,25.89 109.277,25.952 109.273,25.955 	"/>
</g>
<g id="XMLID_116_">
	<path id="XMLID_117_" class="st0" d="M156.474,84.881c-6.321,7.477-7.668,16.646-7.716,26.333c-0.011,1.411,0.005,2.833,0.042,4.26
		v86.55c-4.372,2.29-9.005,4.148-13.84,5.512v-92.062c0.053-2.258,0.069-4.5,0-6.704c-0.272-8.776-1.88-17.041-7.679-23.889
		c-6.092-7.194-10.027-18.739-10.027-31.77c0-21.801,11.012-39.476,24.608-39.476c13.633,0,24.64,17.674,24.64,39.476
		C166.501,66.142,162.571,77.687,156.474,84.881z"/>
</g>
<g id="XMLID_114_">
	<path id="XMLID_115_" class="st0" d="M108.616,16.724v56.639c0,5.703-2.418,10.874-6.268,14.527
		c-5.171,4.889-6.603,11.295-6.885,18.201c-0.085,2.135-0.059,4.319,0,6.523v94.895c-4.798-1.369-9.394-3.211-13.734-5.485v-89.41
		c0.011-0.469,0.021-0.932,0.032-1.395c0.176-8.824-0.463-17.248-6.917-23.33c-3.845-3.653-6.262-8.824-6.262-14.527V16.724
		c0-1.736,1.432-3.121,3.174-3.089c1.688,0.053,2.977,1.518,2.977,3.206v43.97c0,1.433,1.15,2.583,2.583,2.583
		c1.411,0,2.561-1.15,2.561-2.583V16.724c0-1.736,1.433-3.121,3.174-3.089c1.688,0.053,2.977,1.518,2.977,3.206v43.97
		c0,1.433,1.156,2.583,2.583,2.583c1.406,0,2.561-1.15,2.561-2.583V16.724c0-1.736,1.433-3.121,3.174-3.089
		c1.683,0.053,2.977,1.518,2.977,3.206v43.97c0,1.433,1.155,2.583,2.583,2.583c1.406,0,2.556-1.15,2.556-2.583v-43.97
		c0-1.688,1.294-3.153,2.977-3.206C107.184,13.604,108.616,14.988,108.616,16.724z"/>
</g>
<path id="XMLID_111_" class="st0" d="M134.96,71.494c0.069,2.205,0.053,4.447,0,6.704V71.494z"/>
<path id="XMLID_89_" class="st0" d="M148.8,73.96v4.239c-0.037-1.427-0.053-2.849-0.042-4.26
	C148.773,73.944,148.784,73.954,148.8,73.96z"/>
<path id="XMLID_78_" class="st0" d="M81.729,73.96c0.011-0.005,0.021-0.011,0.032-0.016c-0.011,0.463-0.021,0.927-0.032,1.395V73.96
	z"/>
<path id="XMLID_75_" class="st0" d="M95.463,68.815v6.523C95.404,73.134,95.378,70.951,95.463,68.815z"/>
</svg>
